<svg width="715" height="118" viewBox="0 0 715 118" fill="none" xmlns="http://www.w3.org/2000/svg">
<path d="M62.7665 115.849V90.3438H27.6417V70.8307H61.6975V45.3255H27.6417V27.6563H62.7665V2.15104H0V115.849H62.7665Z" fill="black"/>
<path d="M174.706 115.849V2.15104H147.064L148.286 74.0573L104.303 2.15104H79.4106V115.849H107.052L106.289 46.401L149.66 115.849H174.706Z" fill="black"/>
<path d="M228.226 115.849L305.806 2.15104H271.139L223.186 76.362H222.881V2.15104H194.018V115.849H228.226Z" fill="black"/>
<path d="M337.488 115.849V2.15104H308.625V115.849H337.488Z" fill="black"/>
<path d="M429.562 35.3385C429.409 20.1276 423.606 11.0625 411.542 4.76301C405.586 1.6901 399.019 0 391.536 0C370.766 0 352.135 14.1354 352.135 33.4948C352.135 48.2448 360.534 58.0781 379.013 65.6068C389.245 69.7552 401.768 73.75 401.768 82.8151C401.768 88.9609 396.881 93.724 390.925 93.724C383.747 93.724 379.166 87.5781 379.013 78.2057H350.302V80.6641C350.302 105.094 366.49 118 391.078 118C415.512 118 430.478 105.094 430.478 83.1224C430.478 68.2188 424.217 59.1537 399.324 48.3984C386.954 43.0208 380.846 39.9479 380.846 33.1875C380.846 28.1172 385.427 24.276 390.772 24.276C396.423 24.276 399.782 27.1953 401.004 35.3385H429.562Z" fill="black"/>
<path d="M471.851 115.849V2.15104H442.987V115.849H471.851Z" fill="black"/>
<path d="M547.126 118C579.502 118 605.464 91.8802 605.464 58.2318C605.464 25.6589 578.738 0 545.752 0C511.39 0 486.192 26.4271 486.192 61.612C486.192 95.2604 515.666 118 547.126 118ZM546.21 92.4948C527.731 92.4948 515.056 77.4375 515.056 58.6927C515.056 40.7161 527.731 25.5052 545.752 25.5052C563.925 25.5052 576.6 41.3307 576.6 59.1536C576.6 77.2839 564.078 92.4948 546.21 92.4948Z" fill="black"/>
<path d="M715 115.849V2.15104H687.358L688.58 74.0573L644.598 2.15104H619.705V115.849H647.347L646.583 46.401L689.955 115.849H715Z" fill="black"/>
</svg>
